<svg width="567" height="80" viewBox="0 0 567 80" fill="none" xmlns="http://www.w3.org/2000/svg">
<g clip-path="url(#clip0_3647_2806)">
<path d="M82.2987 0.0246018C82.0369 0.0791014 82.0369 0.0791014 82.0027 1.9775C81.9914 3.16741 82.0141 3.89407 82.0938 3.93041C82.2987 4.03032 86.6812 4.02124 86.8405 3.91224C87.0454 3.77599 87.0568 0.124518 86.8519 0.0700182C86.6242 0.0155186 82.5947 -0.0298978 82.2987 0.0246018Z" fill="white"/>
<path d="M53.8759 0.165227C49.585 1.08744 46.481 4.07224 45.284 8.42548L45 9.44686V40.1873V70.9277L45.2637 71.8797C45.8724 74.0117 46.7752 75.5289 48.2562 76.9271C49.9807 78.5533 51.7254 79.4458 53.9469 79.8623C55.2758 80.1102 57.5683 80.011 58.7653 79.664C62.1838 78.6723 64.7502 76.3718 65.9573 73.2085C66.0689 72.911 66.2413 72.6234 66.3326 72.5738C66.4239 72.5242 67.2862 72.4648 68.2295 72.435C70.2583 72.3854 71.0597 72.2069 72.5306 71.5128C75.2288 70.2534 77.2272 68.1115 78.2923 65.335C78.7792 64.0558 78.8603 63.5798 78.9212 61.3585L78.9821 59.2265L79.8443 58.929C82.0151 58.1556 83.6787 56.916 85.109 55.0121C87.0871 52.3645 87.9899 48.9929 88 44.2034C88 40.5046 87.2291 37.4504 85.7379 35.1796C85.1901 34.3664 84.054 33.0773 83.2425 32.3733C82.8773 32.056 82.5832 31.7188 82.5832 31.6196C82.5832 31.5304 82.7657 31.0941 82.9788 30.6578C83.557 29.5075 83.7091 28.8332 83.7193 27.3656C83.7193 24.9956 82.9179 22.8834 81.6905 22.0901L81.234 21.7926H79.6009C78.698 21.7926 77.5924 21.7629 77.1359 21.7232C76.4867 21.6736 76.2939 21.6934 76.2939 21.7926C76.2939 21.862 76.5475 22.219 76.8721 22.576C78.2111 24.1031 78.8198 25.3228 78.9009 26.6615C78.9821 27.911 78.7792 28.5258 78.0387 29.2298C77.3388 29.8942 76.9837 30.0132 75.5331 30.0925C74.9245 30.1223 74.3666 30.1917 74.3057 30.2314C74.2246 30.3008 74.2043 31.0048 74.2246 32.5815L74.2449 34.8325L74.6912 34.8226C74.9347 34.8127 75.6549 34.7928 76.2939 34.7829C78.5459 34.7234 80.1993 35.4275 81.3557 36.9546C82.6846 38.6999 83.0904 40.3162 83.0904 43.8563C83.0904 48.4971 82.6339 50.4209 81.0717 52.4636C79.824 54.0998 78.3836 54.7642 75.8882 54.8832C75.0665 54.913 74.539 54.9824 74.397 55.0716L74.1637 55.2104V58.6117C74.1637 60.5553 74.113 62.2708 74.0521 62.608C73.6159 65.0275 72.1654 66.7133 69.8728 67.467C69.1526 67.7049 68.8686 67.7446 67.8136 67.7446C66.921 67.7545 66.5456 67.7149 66.4239 67.6157C66.2718 67.4967 66.2515 67.2389 66.2515 65.7316C66.2515 64.502 66.2109 63.9368 66.1297 63.8574C65.9472 63.6789 62.062 63.6889 61.9099 63.8673C61.8389 63.9467 61.7882 65.1763 61.7679 67.2587C61.7273 70.5013 61.7273 70.541 61.4636 71.255C60.7738 73.1291 59.4551 74.4282 57.6799 74.9736C56.6756 75.281 54.9207 75.2711 53.9976 74.9537C52.5674 74.4678 51.2994 73.4068 50.5994 72.0978C49.8691 70.7294 49.9299 73.3572 49.9096 40.2765C49.8894 6.85871 49.8184 9.74434 50.64 8.18749C51.2081 7.10662 52.405 5.91666 53.3687 5.46052C55.1033 4.63747 56.7365 4.61763 58.4407 5.40102C59.029 5.67867 59.3841 5.9365 60.0231 6.57114C60.9766 7.50327 61.4737 8.3759 61.7476 9.5956C61.8389 10.0022 61.9505 10.4087 61.991 10.4881C62.0519 10.617 62.4171 10.6368 64.2126 10.6566L66.3631 10.6666L66.4544 10.4385C66.5558 10.1906 66.4341 8.75272 66.2515 7.93958C66.0182 6.90829 65.2269 5.20269 64.5879 4.34989C64.03 3.60617 62.5692 2.29723 61.6563 1.71217C60.652 1.07752 59.5058 0.571795 58.39 0.274306C57.2234 -0.0430142 55.0628 -0.0925955 53.8759 0.165227Z" fill="white"/>
<path d="M38.4912 0.107007C36.2918 0.256118 31.7088 1.16073 28.599 2.06534C26.42 2.69161 22.6146 4.33184 20.2515 5.65396C17.0086 7.47312 13.5714 10.0677 11.2493 12.4634C10.5741 13.1592 10.0217 13.7557 10.0012 13.8054C9.98078 13.8551 10.2161 14.3124 10.523 14.8194C10.8196 15.3263 11.3925 16.3005 11.7915 16.9864C12.9474 18.9746 15.29 22.9608 16.3744 24.7899C16.9268 25.7144 17.827 27.2354 18.3692 28.1698C18.9114 29.0943 19.9957 30.9333 20.7732 32.2455C21.5507 33.5577 22.4611 35.0985 22.7987 35.6751C23.1261 36.2517 23.4739 36.7984 23.5659 36.8978C23.7091 37.0569 23.7296 37.0469 23.9444 36.7487C24.0672 36.5698 24.6401 35.6155 25.2232 34.6313C25.796 33.6472 26.5837 32.3449 26.9622 31.7485C27.3407 31.1421 28.2614 29.6212 29.0082 28.3686C29.755 27.1061 30.8393 25.3168 31.4122 24.3923C32.3635 22.8614 33.0694 21.6884 34.43 19.4219C34.6959 18.9845 35.1767 18.1595 35.5041 17.5829C35.8314 17.0063 36.4759 15.9128 36.9465 15.1474C37.4068 14.382 38.3684 12.7517 39.0845 11.519C39.8108 10.2864 40.6394 8.90459 40.9259 8.43737C41.2225 7.97016 41.5806 7.36377 41.734 7.07549L42 6.55857V3.38746C42 0.733275 41.9795 0.186533 41.8466 0.0871252C41.6931 -0.0321641 40.619 -0.0321641 38.4912 0.107007Z" fill="white"/>
<path d="M70.0997 6.14416C70.0032 6.24988 69.9818 7.19173 70.0139 10.0749C70.0354 12.1701 70.0783 13.9 70.1104 13.9192C70.1319 13.9384 72.0935 13.9769 74.4732 13.9865C78.2143 14.0153 78.8038 14.0057 78.8896 13.8808C79.0504 13.6501 79.0289 6.25949 78.8682 6.11533C78.7717 6.02883 77.6461 6 74.4839 6C70.8822 6 70.2176 6.01922 70.0997 6.14416Z" fill="white"/>
<path d="M82.107 10.0874C82.0082 10.2502 81.9533 14.6997 82.0521 14.8624C82.1289 14.9927 82.5789 15.0144 84.4664 14.9927C85.7395 14.9818 86.8259 14.9493 86.8918 14.9167C87.0564 14.8082 87.0235 10.2502 86.8589 10.12C86.6723 9.98975 82.1948 9.94634 82.107 10.0874Z" fill="white"/>
<path d="M41.2399 13.9552C40.9281 14.487 40.2167 15.6982 39.6613 16.6435C39.1155 17.5889 38.2872 19.0069 37.8292 19.7947C37.381 20.5825 36.6988 21.7149 36.3383 22.3156C35.968 22.9262 35.6659 23.4382 35.6659 23.4678C35.6659 23.4973 35.51 23.7927 35.3248 24.1275C34.7986 25.0729 34.7499 25.0434 36.426 24.9646C37.2153 24.935 38.3165 24.8563 38.8817 24.7972C39.4469 24.7479 40.2849 24.6692 40.7527 24.6298C42.1267 24.5116 41.9903 25.1517 42 18.6032C42 15.2846 41.961 13 41.9123 13C41.8636 13 41.5615 13.4333 41.2399 13.9552Z" fill="white"/>
<path d="M54.0629 14.1873C53.9733 14.4077 53.9823 18.8042 54.0718 18.9144C54.1703 19.0356 57.9046 19.0246 57.9672 18.9034C58.0299 18.7822 57.9941 14.2094 57.9314 14.0882C57.9046 14.0331 57.0449 14 56.015 14C54.3225 14 54.1345 14.022 54.0629 14.1873Z" fill="white"/>
<path d="M7.6517 16.7277C6.55717 18.2728 4.47857 21.8316 3.62504 23.6458C2.41002 26.2376 1.4159 29.4076 0.692913 32.9963C-0.351407 38.16 -0.210825 43.5629 1.08453 48.5671C1.48619 50.1022 1.98827 51.7072 2.10877 51.8567C2.25939 52.0461 29 52.0461 29 51.8666C29 51.7969 28.7188 51.2685 28.3674 50.6904C28.0159 50.1122 27.2026 48.6967 26.5398 47.5503C25.8871 46.3939 25.0537 44.9385 24.6821 44.3105C24.3106 43.6825 23.5374 42.3368 22.9751 41.32C21.2078 38.1699 18.9986 34.3221 17.1108 31.1023C16.1268 29.3977 14.741 27.0052 14.0381 25.7691C11.8993 22.001 9.0073 16.9769 8.69602 16.4685C8.52531 16.2093 8.34456 16 8.27427 16C8.21402 16 7.93286 16.329 7.6517 16.7277Z" fill="white"/>
<path d="M62.074 18.0757C62.0317 18.1071 62 20.0826 62 22.4448C62 25.8417 62.0317 26.7824 62.1374 26.866C62.3066 27.0019 70.7527 27.0542 70.8795 26.9287C70.9958 26.8138 71.0487 18.2848 70.943 18.1175C70.8584 17.9921 62.2008 17.9503 62.074 18.0757Z" fill="white"/>
<path d="M54.1011 30.1362C53.9786 30.3038 53.9611 34.7766 54.0836 34.8709C54.1273 34.9023 54.9848 34.9547 55.9736 34.9861C57.2861 35.0176 57.8111 34.9966 57.9073 34.9128C58.0123 34.8081 58.0211 34.41 57.9686 32.4721C57.9336 30.9637 57.8723 30.1257 57.8111 30.0838C57.7586 30.0419 56.9186 30 55.9561 30C54.6348 30 54.1711 30.0314 54.1011 30.1362Z" fill="white"/>
<path d="M66.8862 34.0367C66.7214 34.057 66.5875 34.0773 66.5772 34.0875C66.5772 34.0977 66.536 35.0631 66.5051 36.2419L66.4433 38.3761L62.3335 38.4066C59.7996 38.4167 58.1721 38.4675 58.1 38.5285C58.0073 38.5996 57.9867 39.1789 58.0073 40.683C58.0382 42.502 58.0588 42.7561 58.2133 42.8679C58.3575 42.9695 59.3155 43 62.3953 43C64.5893 43 66.4021 42.9898 66.4124 42.9695C66.4227 42.9594 66.4536 41.9634 66.4845 40.7643L66.5463 38.5793H68.6579C69.8219 38.5793 70.821 38.5387 70.8931 38.498C71.0373 38.4066 71.0373 34.2298 70.8828 34.0875C70.8107 34.0062 67.494 33.9655 66.8862 34.0367Z" fill="white"/>
<path d="M74.0759 43.0749C74.0325 43.1059 74 44.2018 74 45.5045C74 47.3035 74.0325 47.8824 74.141 47.9134C74.358 47.9858 78.7631 48.0375 78.8716 47.9651C78.9909 47.9031 79.056 43.292 78.9367 43.1163C78.8607 42.9922 74.1953 42.9508 74.0759 43.0749Z" fill="white"/>
<path d="M58.1086 47.0777C57.9883 47.1606 57.9783 47.5233 58.0284 49.3884C58.0986 51.4919 58.1086 51.6059 58.3091 51.6784C58.4194 51.7302 59.3416 51.7717 60.3641 51.782C61.3866 51.7924 62.2387 51.8131 62.2487 51.8338C62.2587 51.8442 62.2988 52.8079 62.3289 53.9684C62.369 55.1289 62.4191 56.1237 62.4392 56.1651C62.4692 56.2066 63.3213 56.248 64.3338 56.248C65.3462 56.248 66.2384 56.2791 66.3286 56.3102C66.469 56.362 66.489 56.6625 66.489 58.5795C66.489 60.3203 66.5191 60.8073 66.6294 60.9005C66.7196 60.9834 67.4012 61.0145 68.8548 60.9938L70.9499 60.9627L70.98 58.5691L71 56.1755L70.7494 56.0615C70.579 55.9786 69.8271 55.9372 68.5941 55.9372H66.6895V53.8855C66.6895 52.4245 66.6594 51.8028 66.5692 51.7095C66.489 51.6266 65.9076 51.5852 64.6144 51.5852H62.78V49.3573C62.78 47.658 62.7499 47.1088 62.6597 47.0777C62.3489 46.9741 58.2489 46.9741 58.1086 47.0777Z" fill="white"/>
<path d="M7.1522 55.0197C4.86238 55.0299 3 55.0806 3 55.1314C3 55.3649 5.40176 59.9843 6.01238 60.9285C7.62034 63.4159 9.02475 65.1824 11.0398 67.2535C14.3066 70.6242 17.5022 72.9999 22.0105 75.4365C24.5242 76.7969 30.2132 79 31.2105 79C31.3733 79 32.1671 77.6903 35.0777 72.6039C35.8614 71.2333 36.8587 69.4972 37.2861 68.7459C37.7238 67.9947 38.5583 66.553 39.1282 65.5479C39.7083 64.5428 40.5835 63.0707 41.0821 62.2788L41.9777 60.827L41.9981 58.035C42.0082 56.4005 41.9777 55.2025 41.9167 55.1416C41.8251 55.0502 16.23 54.9588 7.1522 55.0197Z" fill="white"/>
<path d="M54.0756 60.1304C53.9874 60.4891 53.9698 64.7717 54.058 64.8804C54.1197 64.9565 54.8164 65 56.0246 65C57.6472 65 57.903 64.9783 57.9471 64.8261C58.0176 64.6087 58.0176 60.5652 57.9471 60.2391C57.8942 60 57.8854 60 56.0069 60C54.5695 60 54.1021 60.0326 54.0756 60.1304Z" fill="white"/>
<path d="M40.4236 69.9953C39.6463 71.0965 38.0053 73.4776 36.7638 75.2847C35.5222 77.0918 34.3995 78.7294 34.2591 78.9271L34 79.2847L34.2591 79.3318C36.5047 79.7553 38.1564 79.9341 40.1753 79.9718L41.8487 80L41.9134 78.7765C42.0214 76.8188 42.0322 68 41.9242 68C41.8702 68 41.2009 68.9035 40.4236 69.9953Z" fill="white"/>
<path d="M374.223 14.3347C371.264 15.1018 369.401 16.5538 368.278 18.9922L367.648 20.3621L367.565 41.8141C367.511 57.8415 367.565 63.4032 367.812 63.6771C368.25 64.2251 377.976 64.2525 378.442 63.7045C378.661 63.4306 378.771 57.8415 378.798 44.4443C378.88 27.9785 378.935 25.5675 379.291 25.5675C379.784 25.5675 381.949 28.1429 393.483 42.5538C406.415 58.6634 409.757 62.5538 411.62 63.5127C412.963 64.1977 416.771 64.7182 418.99 64.499C422.99 64.1429 425.374 62.773 426.497 60.2251C427.017 59.0196 427.045 58.3621 427.017 36.8278C427.017 18.5812 426.935 14.636 426.634 14.4442C426.031 14.0607 417.017 14.1429 416.469 14.5264C416.058 14.8552 416.004 16.499 415.949 33.7045C415.894 47.7045 415.784 52.5538 415.538 52.5538C415.209 52.5538 410.004 46.1703 400.058 33.5127C387.017 16.91 386.113 15.9511 382.853 14.7182C380.853 13.9511 376.524 13.7593 374.223 14.3347Z" fill="white"/>
<path d="M180.442 14.4167L172.168 14.4715L172.223 39.2112L172.305 63.9236L177.73 64.0058L183.127 64.0605V57.0195C183.127 53.129 183.236 49.7866 183.373 49.5674C183.565 49.266 186.332 49.1838 198.36 49.1016C206.908 49.0195 213.812 48.8551 214.716 48.6907C218.634 48.0058 222.387 46.1975 224.141 44.1975C225.319 42.8825 226.798 39.8688 227.373 37.6222C227.62 36.7181 227.894 34.4441 227.976 32.5537C228.469 21.951 223.976 16.3345 213.812 14.7729C211.702 14.4441 196.141 14.2797 180.442 14.4167ZM212.634 25.5674C214.415 26.0879 215.812 27.4578 216.278 29.1016C216.469 29.7866 216.579 31.3208 216.524 32.6085C216.387 35.7044 215.51 37.2386 213.127 38.4441L211.51 39.266L197.456 39.3482C186.058 39.403 183.401 39.3756 183.373 39.0742C183.373 38.8825 183.319 35.7866 183.291 32.1701C183.236 27.0742 183.291 25.5674 183.593 25.2934C184.168 24.7181 210.661 24.9647 212.634 25.5674Z" fill="white"/>
<path d="M242.168 14.4715L240.25 14.6085V32.6907C240.25 49.4852 240.277 50.9099 240.771 52.6907C241.401 55.1016 242.332 57.1016 243.51 58.5811C244.661 60.0331 247.401 61.951 249.401 62.7181C252.825 64.0058 253.866 64.0605 272.442 64.0605C288.113 64.0605 289.921 64.0058 290.086 63.6222C290.305 63.0742 290.305 56.5537 290.086 55.2386L289.921 54.2249L273.154 54.1427L256.414 54.0605L255.127 53.4304C253.346 52.5537 252.058 50.9647 251.51 49.0195C251.127 47.6496 251.072 45.3482 251.072 31.1016C251.072 18.2523 250.99 14.6907 250.743 14.6085C250.195 14.4167 244.332 14.3071 242.168 14.4715Z" fill="white"/>
<path d="M441.154 14.4167C440.469 14.4715 439.757 14.6633 439.593 14.8551C439.373 15.1016 439.291 16.8003 439.346 19.9784L439.428 24.7455L450.524 24.8825L461.62 25.0195L461.702 44.1701C461.73 57.7592 461.839 63.4304 462.058 63.7044C462.305 63.9784 463.538 64.0605 467.538 64.0605C472.442 64.0605 472.716 64.0331 472.99 63.5126C473.209 63.1016 473.264 57.3208 473.209 44.2249C473.154 33.8962 473.236 25.3756 473.346 25.2386C473.483 25.129 478.524 24.9647 484.579 24.8825L495.593 24.7455L495.675 19.7318C495.73 15.8688 495.675 14.6907 495.401 14.6085C495.017 14.4715 443.236 14.2797 441.154 14.4167Z" fill="white"/>
<path d="M116.497 14.9101C107.51 16.5266 103.456 21.6499 104.058 30.6362C104.141 32.0608 104.387 33.8416 104.606 34.6088C105.784 39.0471 109.1 42.1156 114.141 43.4033C115.593 43.7868 118.141 43.8964 129.976 44.0334C143.017 44.1978 144.168 44.2252 145.127 44.7183C146.661 45.4855 147.346 46.6088 147.456 48.6088C147.593 50.554 147.154 51.6499 145.812 52.6362C143.867 54.0608 144.36 54.0334 123.538 54.1978L104.086 54.3348V59.1293V63.9238H125.593H147.1L149.154 63.2937C154.305 61.6773 157.565 58.3348 158.716 53.4033C160.086 47.6225 159.017 41.869 156.004 38.8553C154.579 37.4307 151.647 36.0334 148.743 35.3759C146.798 34.9375 145.045 34.8827 133.647 34.8553C118.99 34.8553 118.798 34.8279 116.935 32.9375C115.483 31.5129 115.127 29.8964 115.839 28.0608C116.36 26.6636 116.853 26.1704 118.332 25.5129C119.346 25.0471 120.908 25.0197 137.51 24.8827L155.593 24.7457V19.6773V14.6088L137.1 14.554C122.332 14.5266 118.195 14.6088 116.497 14.9101Z" fill="white"/>
<path d="M316.798 14.8828C308.415 16.1978 303.538 20.2252 301.867 27.2115C301.51 28.7458 301.401 31.0745 301.291 38.7184C301.154 49.0197 301.346 51.2389 302.579 54.5266C303.976 58.2526 307.319 61.4033 311.456 62.8554C314.798 64.0608 315.565 64.0882 334.743 64.0608C347.565 64.0608 353.209 63.9512 353.456 63.7321C353.976 63.2937 353.976 54.6636 353.428 54.2252C353.182 54.006 348.305 53.9238 335.976 53.9238C325.921 53.9238 318.497 53.8143 317.976 53.6773C315.264 52.8828 313.867 51.0745 313.456 47.8143C313.291 46.5814 313.264 45.2115 313.374 44.8006L313.538 44.0608L333.072 44.006L352.579 43.9239L352.661 39.9512C352.689 37.7595 352.661 35.7047 352.579 35.3485L352.442 34.7458H333.291C315.867 34.7458 314.113 34.7184 313.784 34.3074C313.182 33.5951 313.346 29.9239 314.031 28.3896C314.716 26.828 316.332 25.5677 318.223 25.1841C319.1 24.9923 325.346 24.8828 335.949 24.8828C348.332 24.8828 352.415 24.8006 352.661 24.554C353.072 24.143 353.127 15.7869 352.716 14.9923C352.442 14.4992 351.976 14.4718 335.784 14.4992C323.346 14.5266 318.552 14.6088 316.798 14.8828Z" fill="white"/>
<path d="M520.825 14.9098C514.223 16.1153 510.058 18.992 507.729 23.9509C506.058 27.5399 505.757 29.9235 505.757 39.5399C505.757 47.0194 505.812 47.9783 506.36 50.3619C507.181 54.0057 508.579 56.6084 510.935 58.992C513.236 61.3208 515.236 62.3893 519.154 63.3756L521.894 64.0879L537.099 64.0057C551.921 63.8961 552.36 63.8961 554.305 63.2934C559.428 61.7317 562.442 59.3482 564.414 55.266C566.524 50.9098 566.771 49.4304 566.908 40.0879C567.017 30.1701 566.743 28.0879 564.606 23.8139C562.36 19.266 559.236 16.8276 553.675 15.266C551.538 14.6632 551.072 14.6358 537.236 14.581C525.702 14.5262 522.579 14.581 520.825 14.9098ZM549.346 25.4578C551.483 25.8687 553.236 27.1838 554.223 29.129L555.045 30.7454V39.1016C555.045 47.266 555.017 47.5399 554.414 49.0742C553.291 51.8413 551.236 53.3756 548.031 53.9235C545.784 54.2797 526.414 54.2797 524.469 53.9235C521.099 53.2934 518.716 51.3482 517.729 48.3619C517.017 46.1975 516.853 32.8824 517.51 30.4441C518.36 27.2934 520.442 25.6495 524.14 25.1564C526.332 24.855 547.592 25.129 549.346 25.4578Z" fill="white"/>
</g>
<defs>
<clipPath id="clip0_3647_2806">
<rect width="567" height="80" fill="white"/>
</clipPath>
</defs>
</svg>
